# xmcd
#
# Track frame offsets: 
#        150
#        19145
#        35715
#        47550
#        62647
#        82522
#        103915
#        127362
#        132220
#        153530
#        170132
#        202535
#        219315
#        235055
#
# Disc length: 3399 seconds
#
# Revision: 1
# Processed by: cddbd v1.5.1PL0 Copyright (c) Steve Scherf et al.
# Submitted via: ExactAudioCopy v0.95b2
#
DISCID=bb0d450e
DTITLE=Count Basie (1904-4984) - Roulette Live Recordings CD 6 (Sweden
DTITLE=1962) 
DYEAR=1962
DGENRE=Jazz
TTITLE0=Li'l Darlin'
TTITLE1=April in Paris
TTITLE2=Little Pony
TTITLE3=Summer Frost
TTITLE4=For Lena and Lennie
TTITLE5=Blues in Hoss' Flat
TTITLE6=Bluish Grey
TTITLE7=One O'Clock Jump
TTITLE8=Ours Alone
TTITLE9=Bread
TTITLE10=Plymouth Rock
TTITLE11=Be My Guest
TTITLE12=To You
TTITLE13=Cherry Point
EXTD=
EXTT0=
EXTT1=
EXTT2=
EXTT3=
EXTT4=
EXTT5=
EXTT6=
EXTT7=
EXTT8=
EXTT9=
EXTT10=
EXTT11=
EXTT12=
EXTT13=
PLAYORDER=
